<svg width="260" height="71" viewBox="0 0 260 71" fill="none" xmlns="http://www.w3.org/2000/svg">
<path d="M42.3125 62.6406V70H8.1875V62.6406H42.3125ZM9.96875 1.75V70H0.921875V1.75H9.96875Z" fill="white"/>
<path d="M102.125 33.7188V38.0312C102.125 43.1562 101.484 47.75 100.203 51.8125C98.9219 55.875 97.0781 59.3281 94.6719 62.1719C92.2656 65.0156 89.375 67.1875 86 68.6875C82.6562 70.1875 78.9062 70.9375 74.75 70.9375C70.7188 70.9375 67.0156 70.1875 63.6406 68.6875C60.2969 67.1875 57.3906 65.0156 54.9219 62.1719C52.4844 59.3281 50.5938 55.875 49.25 51.8125C47.9062 47.75 47.2344 43.1562 47.2344 38.0312V33.7188C47.2344 28.5938 47.8906 24.0156 49.2031 19.9844C50.5469 15.9219 52.4375 12.4688 54.875 9.625C57.3125 6.75 60.2031 4.5625 63.5469 3.0625C66.9219 1.5625 70.625 0.8125 74.6562 0.8125C78.8125 0.8125 82.5625 1.5625 85.9062 3.0625C89.2812 4.5625 92.1719 6.75 94.5781 9.625C97.0156 12.4688 98.875 15.9219 100.156 19.9844C101.469 24.0156 102.125 28.5938 102.125 33.7188ZM93.1719 38.0312V33.625C93.1719 29.5625 92.75 25.9688 91.9062 22.8438C91.0938 19.7188 89.8906 17.0938 88.2969 14.9688C86.7031 12.8438 84.75 11.2344 82.4375 10.1406C80.1562 9.04688 77.5625 8.5 74.6562 8.5C71.8438 8.5 69.2969 9.04688 67.0156 10.1406C64.7656 11.2344 62.8281 12.8438 61.2031 14.9688C59.6094 17.0938 58.375 19.7188 57.5 22.8438C56.625 25.9688 56.1875 29.5625 56.1875 33.625V38.0312C56.1875 42.125 56.625 45.75 57.5 48.9062C58.375 52.0312 59.625 54.6719 61.25 56.8281C62.9062 58.9531 64.8594 60.5625 67.1094 61.6562C69.3906 62.75 71.9375 63.2969 74.75 63.2969C77.6875 63.2969 80.2969 62.75 82.5781 61.6562C84.8594 60.5625 86.7812 58.9531 88.3438 56.8281C89.9375 54.6719 91.1406 52.0312 91.9531 48.9062C92.7656 45.75 93.1719 42.125 93.1719 38.0312Z" fill="white"/>
<path d="M166.109 36.0156V61C165.266 62.25 163.922 63.6562 162.078 65.2188C160.234 66.75 157.688 68.0938 154.438 69.25C151.219 70.375 147.062 70.9375 141.969 70.9375C137.812 70.9375 133.984 70.2188 130.484 68.7812C127.016 67.3125 124 65.1875 121.438 62.4062C118.906 59.5938 116.938 56.1875 115.531 52.1875C114.156 48.1562 113.469 43.5938 113.469 38.5V33.2031C113.469 28.1094 114.062 23.5625 115.25 19.5625C116.469 15.5625 118.25 12.1719 120.594 9.39062C122.938 6.57812 125.812 4.45312 129.219 3.01562C132.625 1.54688 136.531 0.8125 140.938 0.8125C146.156 0.8125 150.516 1.71875 154.016 3.53125C157.547 5.3125 160.297 7.78125 162.266 10.9375C164.266 14.0938 165.547 17.6875 166.109 21.7188H157.062C156.656 19.25 155.844 17 154.625 14.9688C153.438 12.9375 151.734 11.3125 149.516 10.0938C147.297 8.84375 144.438 8.21875 140.938 8.21875C137.781 8.21875 135.047 8.79688 132.734 9.95312C130.422 11.1094 128.516 12.7656 127.016 14.9219C125.516 17.0781 124.391 19.6875 123.641 22.75C122.922 25.8125 122.562 29.2656 122.562 33.1094V38.5C122.562 42.4375 123.016 45.9531 123.922 49.0469C124.859 52.1406 126.188 54.7812 127.906 56.9688C129.625 59.125 131.672 60.7656 134.047 61.8906C136.453 63.0156 139.109 63.5781 142.016 63.5781C145.234 63.5781 147.844 63.3125 149.844 62.7812C151.844 62.2188 153.406 61.5625 154.531 60.8125C155.656 60.0312 156.516 59.2969 157.109 58.6094V43.3281H141.312V36.0156H166.109Z" fill="white"/>
<path d="M190.812 1.75V70H181.766V1.75H190.812Z" fill="white"/>
<path d="M259.766 1.75V70H250.672L216.312 17.3594V70H207.266V1.75H216.312L250.812 54.5312V1.75H259.766Z" fill="white"/>
</svg>
